<svg xmlns="http://www.w3.org/2000/svg" viewBox="0 0 135.84188 88.40257">
  <g id="图层_2" data-name="图层 2">
    <g id="图层_1-2" data-name="图层 1">
      <g id="图层_2-2" data-name="图层 2">
        <g id="图层_1-2-2" data-name="图层 1-2">
          <path style="white" fill="white"
          d="M38.5518,28.07461a27.09183,27.09183,0,0,1,5.99707-16.00429A31.11342,31.11342,0,0,1,65.11.4416a32.58588,32.58588,0,0,1,25.03125,6.177,27.62912,27.62912,0,0,1,11.38943,19.11625c.09489.72473.23053,1.12968,1.16477.96476a28.04568,28.04568,0,0,1,31.18413,17.93748c6.02178,15.907-2.258,32.85457-18.78292,38.23459a118.81188,118.81188,0,0,1-17.76721,3.8525c-1.89059.30829-3.7984.51017-5.691.80767-.55257.08685-.71261-.05252-.68669-.59156A16.94654,16.94654,0,0,0,86.94,75.2c-.3566-.44343-.281-.64323.17157-.89643A22.00965,22.00965,0,0,0,90.03631,72.221a10.35584,10.35584,0,0,0,3.887-10.44113c-.13044-.82269-.20491-1.65425-.31791-2.58671a5.32234,5.32234,0,0,0,4.30985.44963,5.25686,5.25686,0,0,0,2.70667-2.2611,6.687,6.687,0,0,0-.74-7.89939c-1.91426-1.99806-3.8979-2.07232-7.22434-.199a28.18225,28.18225,0,0,0-.42453-3.91841,13.32216,13.32216,0,0,0-2.98846-6.18756,27.71969,27.71969,0,0,0-14.60787-9.52151c-.79611-.19724-.74411-.4509-.40366-1.02912.36864-.62609,1.28124-1.34235.7417-1.9685-.50744-.58893-1.5074-.059-2.258.17555a21.8356,21.8356,0,0,0-3.55884,1.66456c-.10849-.91185-.15724-1.72372-.31-2.51551a5.84409,5.84409,0,0,0-1.81222-3.43251c-.59944-.522-1.18556-.64063-1.564.3353-1.561,4.02591-4.64783,6.50384-8.47829,8.16378a29.70963,29.70963,0,0,0-8.3229,5.35091,16.89467,16.89467,0,0,0-5.92429,11.65312c-.015.22538-.06065.44872-.09426.689-3.12493-1.3353-5.22581-.9686-6.90817,1.171a6.69136,6.69136,0,0,0,.02663,8.03114c1.58988,2.048,3.72123,2.46457,6.64824,1.2456-.08184.66146-.11125,1.2885-.24209,1.89362-.87455,4.04487.6632,7.17833,3.63362,9.79647a21.86426,21.86426,0,0,0,3.42845,2.60942c.6254.36253.76854.6011.23082,1.22593A17.05447,17.05447,0,0,0,45.03939,86.6677c.04289,1.42543-.98106.76158-1.50056.6937-5.46314-.7139-10.88313-1.68222-16.27953-2.80057a37.75187,37.75187,0,0,1-15.6427-6.90122C3.861,71.69715-.23607,63.907.01051,54.00406.34721,40.48172,10.70442,28.57485,23.9223,26.54959a27.70781,27.70781,0,0,1,13.46722,1.2276c.30162.10472.60189.21336.90421.316A1.19433,1.19433,0,0,0,38.5518,28.07461Z"/>
          <path fill='white'
          d="M68.11918,43.40576a10.07078,10.07078,0,0,1,6.87659-4.05011,9.75933,9.75933,0,0,1,9.71716,4.79176c1.77941,3.27365,1.19722,6.83266-1.67315,9.99144-.36122.39749-.43661.61528-.04529,1.05851,5.0743,5.74739,3.63759,13.14033-2.44876,17.58074-7.29792,5.32436-18.56726,5.0538-25.512-.61749-5.54409-4.52748-6.26923-11.26649-1.77648-16.8156.43594-.53844.4956-.80749-.03373-1.34253a7.86581,7.86581,0,0,1-2.07018-8.6834,8.77959,8.77959,0,0,1,7.16277-5.84567,9.57284,9.57284,0,0,1,9.4517,3.36254A4.43134,4.43134,0,0,1,68.11918,43.40576ZM60.51746,60.20664c-.11662.48426-.18121.711-.22528.94173a7.18574,7.18574,0,0,0,4.34508,8.0808,7.28881,7.28881,0,0,0,8.6447-2.4891c.31969-.47412.69538-1.01314.08182-1.47024-.603-.44923-1.00259.018-1.37508.48805a5.61134,5.61134,0,0,1-7.80992,1.40691q-.06937-.04821-.13727-.09847c-2.48965-1.80625-2.94484-5.04309-1.09836-7.87905.24485-.37607.5356-.71848.19982-1.18548-.28521-.39667-.69258-.34347-1.08935-.29613a6.19029,6.19029,0,0,0-4.676,4.02785c-.13062.4707-.25073.98829.33513,1.24394.64335.28076.94348-.12861,1.16651-.66458A3.76948,3.76948,0,0,1,60.51746,60.20664Z"/>
          <path fill='white'
          d="M53.87408,80.84316c0,2.31462-.00468,4.57344.00391,6.8322.00174.45653-.06493.768-.647.72287-.47285-.03669-.764-.14807-.689-.70012a39.25691,39.25691,0,0,1,1.10911-6.57033C53.6811,81.03221,53.78115,80.95866,53.87408,80.84316Z"/>
          <path fill='white'
          d="M83.00869,80.88962c.95771,2.19664.99977,4.55184,1.35769,6.85052.09555.61367-.31833.59369-.73024.64708-.58713.07608-.6364-.24211-.63363-.70324C83.01612,85.41926,83.00869,83.15441,83.00869,80.88962Z"/>
          <path fill='white'
          d="M97.2894,53.17133a.76429.76429,0,0,1-.93859.70361,1.97887,1.97887,0,0,0-2.00859,1.01342.72229.72229,0,0,1-1.10964.30145c-.47415-.31622-.30654-.75673-.08607-1.1643a3.38754,3.38754,0,0,1,3.35982-1.59722A.84447.84447,0,0,1,97.2894,53.17133Z"/>
          <path fill='white'
          d="M40.38006,52.40655a3.12027,3.12027,0,0,1,2.64735,1.63391c.24274.40589.3516.86225-.10528,1.16478a.72685.72685,0,0,1-1.1012-.33694,1.86421,1.86421,0,0,0-1.77276-.9959c-.54261.018-1.14765.02256-1.13029-.699C38.93631,52.40775,39.59571,52.42176,40.38006,52.40655Z"/>
        </g>
      </g>
    </g>
  </g>
</svg>
